#define __________width 36
#define __________height 13
static unsigned char __________bits[] = {
   0x00, 0x00, 0x00, 0x00, 0x00, 0x04, 0xe0, 0x27, 0x7e, 0x02, 0x04, 0x80,
   0x20, 0x40, 0x0e, 0x04, 0x80, 0x3c, 0x7e, 0x02, 0xfc, 0x83, 0x21, 0x02,
   0x02, 0x00, 0x40, 0x22, 0x02, 0x0e, 0x00, 0x20, 0x24, 0xfe, 0x02, 0xfe,
   0x07, 0x00, 0x00, 0x02, 0x40, 0xc0, 0x3f, 0xf8, 0x01, 0x40, 0x00, 0x20,
   0x04, 0x02, 0x40, 0x00, 0x20, 0x04, 0x02, 0x40, 0x00, 0x20, 0xf8, 0x01,
   0x00, 0x00, 0x00, 0x00, 0x00 };
