#define _______width 24
#define _______height 13
static unsigned char _______bits[] = {
   0x00, 0x00, 0x00, 0xfc, 0xc3, 0x3f, 0x04, 0x42, 0x00, 0x04, 0x42, 0x00,
   0x04, 0x42, 0x00, 0x04, 0x42, 0x00, 0xfc, 0xc3, 0x3f, 0x40, 0x00, 0x00,
   0x40, 0x00, 0x00, 0x40, 0x00, 0x00, 0xfe, 0xe7, 0x7f, 0x00, 0x00, 0x00,
   0x00, 0x00, 0x00 };
