#define _______width 24
#define _______height 13
static unsigned char _______bits[] = {
   0x00, 0x00, 0x00, 0x42, 0x82, 0x1f, 0x42, 0x42, 0x20, 0x42, 0x82, 0x1f,
   0x42, 0x02, 0x00, 0x7e, 0xe2, 0x7f, 0x42, 0x82, 0x10, 0x42, 0xc2, 0x3f,
   0x42, 0x02, 0x20, 0x42, 0xc2, 0x3f, 0x7e, 0x42, 0x00, 0x00, 0xc2, 0x3f,
   0x00, 0x00, 0x00 };
