#define _______width 24
#define _______height 13
static unsigned char _______bits[] = {
   0x00, 0x00, 0x00, 0x88, 0x02, 0x21, 0x88, 0x02, 0x21, 0xec, 0x02, 0x21,
   0x94, 0x02, 0x21, 0x94, 0x02, 0x39, 0xa2, 0x82, 0x22, 0x80, 0x82, 0x22,
   0x80, 0x42, 0x24, 0x04, 0x40, 0x24, 0x04, 0x20, 0x28, 0xfc, 0x03, 0x20,
   0x00, 0x00, 0x00 };
