#define __________width 36
#define __________height 13
static unsigned char __________bits[] = {
   0x00, 0x00, 0x00, 0x00, 0x00, 0x10, 0xe2, 0x27, 0x7e, 0x02, 0x10, 0x02,
   0x24, 0x02, 0x02, 0x10, 0x02, 0x24, 0x02, 0x02, 0x10, 0x02, 0xe4, 0x02,
   0x0e, 0x10, 0x02, 0x22, 0xfe, 0x02, 0x28, 0x02, 0x21, 0x00, 0x02, 0x28,
   0xe2, 0x20, 0x00, 0x00, 0x44, 0x02, 0x20, 0xf8, 0x01, 0x44, 0x42, 0x00,
   0x04, 0x02, 0x82, 0x42, 0x00, 0x04, 0x02, 0x00, 0xc2, 0x3f, 0xf8, 0x01,
   0x00, 0x00, 0x00, 0x00, 0x00 };
