#define __________width 59
#define __________height 13
static unsigned char __________bits[] = {
   0x00, 0x00, 0x00, 0x00, 0x00, 0x00, 0x00, 0x00, 0x3c, 0x22, 0x20, 0xf0,
   0x00, 0x08, 0x80, 0x00, 0x42, 0x22, 0x20, 0x08, 0x01, 0x04, 0x02, 0x01,
   0x42, 0x22, 0x20, 0x04, 0x02, 0x04, 0x07, 0x01, 0x42, 0x22, 0x20, 0x04,
   0x02, 0x82, 0x0a, 0x02, 0x42, 0x22, 0x20, 0x08, 0x01, 0x02, 0x02, 0x02,
   0x42, 0x2e, 0x20, 0xf0, 0x00, 0x02, 0x02, 0x02, 0x42, 0x22, 0x20, 0x40,
   0x00, 0x02, 0x02, 0x02, 0x42, 0x22, 0x20, 0x40, 0x00, 0x02, 0x02, 0x02,
   0x42, 0x22, 0x20, 0x40, 0x00, 0x04, 0x02, 0x01, 0x3c, 0xe2, 0x2f, 0xfe,
   0x07, 0x04, 0x02, 0x01, 0x00, 0x02, 0x20, 0x00, 0x00, 0x08, 0x82, 0x00,
   0x00, 0x00, 0x00, 0x00, 0x00, 0x00, 0x00, 0x00 };
