#define ____width 35
#define ____height 13
static unsigned char ____bits[] = {
   0x00, 0x00, 0x00, 0x00, 0x00, 0x8c, 0x02, 0x08, 0x80, 0x00, 0x92, 0x02,
   0x04, 0x02, 0x01, 0xf2, 0x02, 0x04, 0x07, 0x01, 0x92, 0x02, 0x82, 0x0a,
   0x02, 0x92, 0x02, 0x02, 0x02, 0x02, 0x92, 0x02, 0x02, 0x02, 0x02, 0xf2,
   0x02, 0x02, 0x02, 0x02, 0x92, 0x02, 0x02, 0x02, 0x02, 0x92, 0x02, 0x04,
   0x02, 0x01, 0x8c, 0x02, 0x04, 0x02, 0x01, 0x80, 0x02, 0x08, 0x82, 0x00,
   0x00, 0x00, 0x00, 0x00, 0x00 };
