#define _______width 24
#define _______height 13
static unsigned char _______bits[] = {
   0x00, 0x00, 0x00, 0xf8, 0x01, 0x04, 0x04, 0x02, 0x04, 0x04, 0x02, 0x1b,
   0x04, 0xc2, 0x60, 0xf8, 0x01, 0x04, 0x00, 0xe0, 0x7f, 0x00, 0x00, 0x00,
   0xfe, 0xc7, 0x3f, 0x08, 0x01, 0x20, 0x08, 0x01, 0x20, 0x08, 0x01, 0x20,
   0x00, 0x00, 0x00 };
