#define _______width 24
#define _______height 13
static unsigned char _______bits[] = {
   0x00, 0x00, 0x00, 0xfc, 0xc3, 0x23, 0x40, 0x20, 0x24, 0xa0, 0x20, 0x24,
   0x10, 0x21, 0x24, 0x0c, 0xc2, 0x23, 0x00, 0x00, 0x00, 0x00, 0x40, 0x20,
   0xfe, 0x47, 0x20, 0x40, 0xc0, 0x3f, 0x40, 0x40, 0x20, 0x40, 0xc0, 0x3f,
   0x00, 0x00, 0x00 };
