#define ____width 12
#define ____height 13
static unsigned char ____bits[] = {
   0x00, 0x00, 0xfc, 0x03, 0x60, 0x00, 0x90, 0x00, 0x0c, 0x03, 0x00, 0x00,
   0xfe, 0x07, 0x40, 0x00, 0xf8, 0x01, 0x04, 0x02, 0x04, 0x02, 0xf8, 0x01,
   0x00, 0x00 };
